<svg xmlns="http://www.w3.org/2000/svg" width="212" height="69" fill="none" viewBox="0 0 212 69"><path fill="#655DFB" d="M44.0295 31.1865V12.843C44.0295 9.43679 42.6764 6.17014 40.2679 3.76162C37.8593 1.35309 34.5927 0 31.1865 0L12.8347 0C11.1486 -3.45992e-07 9.47892 0.332252 7.9212 0.977772C6.36348 1.62329 4.94822 2.56943 3.7563 3.76211C2.56438 4.9548 1.61915 6.37066 0.974628 7.92879C0.330106 9.48692 -0.00107755 11.1568 2.63385e-06 12.843V31.1865C0.00117442 34.3613 1.17818 37.423 3.30389 39.7811C5.42961 42.1391 8.35336 43.6262 11.511 43.9555L24.9624 33.0201H10.5161V27.7661L24.9377 16.0414H11.0752V11.0094H33.5134V16.2716L19.0918 27.9552H33.5134V33.2174L20.2511 44.0295H31.1865C34.5927 44.0295 37.8593 42.6764 40.2679 40.2679C42.6764 37.8593 44.0295 34.5927 44.0295 31.1865Z"/><path fill="#655DFB" d="M58.3772 0H66.5993C70.1842 0 72.9468 2.25286 72.9057 5.95282C72.8646 9.65277 70.2006 11.9139 66.5993 11.8892H60.9507V19.7989H58.3772V0ZM66.1882 9.57055C68.8522 9.57055 70.3815 8.32901 70.3815 5.95282C70.3815 3.57662 68.8522 2.31864 66.1882 2.31864H60.9507V9.57055H66.1882Z"/><path fill="#655DFB" d="M81.4647 5.38554C85.1893 5.31976 88.2151 8.46061 88.1575 12.7279C88.1 16.9952 85.1893 20.1278 81.4647 20.0702C77.7648 20.136 74.7308 16.9952 74.7801 12.7279C74.8295 8.46061 77.7648 5.32798 81.4647 5.38554ZM81.5881 18.0887C83.9807 18.0887 85.7485 16.0743 85.7485 12.7608C85.7485 9.44726 83.9807 7.39996 81.5881 7.39996H81.3414C78.957 7.39996 77.1892 9.41438 77.1892 12.7279C77.1892 16.0414 78.9323 18.0887 81.3414 18.0887H81.5881Z"/><path fill="#655DFB" d="M97.4486 5.3855C100.614 5.3855 102.875 7.26014 103.155 10.3188H100.754C100.642 9.52479 100.265 8.79182 99.685 8.23858C99.407 7.96774 99.0774 7.75543 98.7159 7.61421C98.3543 7.47298 97.9681 7.40571 97.5801 7.41636H97.3253C94.612 7.37525 93.1484 9.883 93.1731 12.7443C93.1977 15.6056 94.612 18.0887 97.3253 18.0887H97.5801C97.9666 18.0969 98.3508 18.0284 98.7107 17.8873C99.0706 17.7462 99.3989 17.5352 99.6768 17.2665C100.251 16.7041 100.628 15.9718 100.754 15.178H103.155C102.793 18.1873 100.631 20.1113 97.4486 20.1113C93.28 20.1689 90.7311 16.9376 90.7722 12.769C90.8133 8.60035 93.2389 5.36905 97.4486 5.42661"/><path fill="#655DFB" d="M112.388 5.3855C115.554 5.3855 117.815 7.26014 118.086 10.3188H115.685C115.584 9.51862 115.209 8.77804 114.625 8.22213C114.345 7.95181 114.013 7.73991 113.651 7.59875C113.288 7.4576 112.901 7.39001 112.512 7.39992H112.265C109.543 7.35881 108.08 9.86656 108.154 12.7279C108.228 15.5892 109.584 18.0969 112.265 18.0558H112.512C112.898 18.064 113.282 17.9955 113.642 17.8544C114.002 17.7133 114.33 17.5023 114.608 17.2336C115.185 16.6733 115.563 15.94 115.685 15.1452H118.086C117.733 18.1545 115.562 20.0784 112.388 20.0784C108.22 20.136 105.663 16.9047 105.704 12.7361C105.745 8.56746 108.22 5.33617 112.388 5.39372"/><path fill="#655DFB" d="M134.004 5.66504V19.7989H131.603V8.25501L124.787 19.7989H121.482V5.66504H123.891V17.3076L130.863 5.66504"/><path fill="#655DFB" d="M150.86 5.66504V19.7989H148.467V8.22212L141.643 19.7331H138.354V5.66504H140.755V17.3076L147.727 5.66504H150.86ZM142.44 0C142.563 1.4882 143.262 2.17064 144.496 2.17064C145.729 2.17064 146.461 1.44709 146.559 0H148.656C148.656 2.54064 147.11 3.73284 144.496 3.73284C141.881 3.73284 140.385 2.55708 140.344 0H142.44Z"/><path fill="#655DFB" d="M161.03 5.3855C164.204 5.3855 166.465 7.26014 166.737 10.3188H164.336C164.234 9.51862 163.859 8.77804 163.275 8.22213C162.994 7.95081 162.662 7.73833 162.297 7.59715C161.933 7.45596 161.544 7.38891 161.154 7.39992H160.907C158.186 7.35881 156.722 9.86656 156.747 12.7279C156.771 15.5892 158.194 18.0887 160.915 18.0887H161.162C161.548 18.0978 161.933 18.0297 162.293 17.8886C162.653 17.7474 162.981 17.5359 163.259 17.2665C163.833 16.7041 164.21 15.9718 164.336 15.178H166.737C166.375 18.1873 164.212 20.1113 161.03 20.1113C156.87 20.1689 154.313 16.9376 154.354 12.769C154.395 8.60035 156.87 5.36905 161.03 5.42661"/><path fill="#655DFB" d="M175.008 12.9334L172.533 15.3671V19.7989H170.132V5.66504H172.533V12.6703L179.44 5.66504H182.449L176.751 11.2561L182.728 19.7989H179.81"/><path fill="#655DFB" d="M190.318 5.38554C194.042 5.31976 197.068 8.46061 197.01 12.7279C196.953 16.9952 194.042 20.1278 190.318 20.0702C186.618 20.136 183.584 16.9952 183.633 12.7279C183.682 8.46061 186.618 5.32798 190.318 5.38554ZM190.441 18.0887C192.833 18.0887 194.552 16.0743 194.552 12.7608C194.552 9.44726 192.833 7.39996 190.441 7.39996H190.194C187.802 7.39996 186.083 9.41438 186.083 12.7279C186.083 16.0414 187.843 18.0558 190.194 18.0558L190.441 18.0887Z"/><path fill="#655DFB" d="M206.104 5.3856C209.639 5.3856 212.048 8.0249 211.999 11.6344V13.0651H202.026C202.1 16.3539 204.163 18.0806 206.137 18.0559H206.375C207.112 18.1031 207.841 17.883 208.429 17.436C209.016 16.9889 209.423 16.3449 209.574 15.6221H211.974C211.448 18.4259 209.089 20.0374 206.161 20.0374C202.593 20.0785 199.584 17.431 199.584 12.6375C199.584 7.84401 202.708 5.27871 206.071 5.31982L206.104 5.3856ZM209.565 11.0753C209.483 8.64978 208.036 7.35069 206.186 7.35069H205.939C204.295 7.35069 202.56 8.38668 202.108 11.0753H209.565Z"/><path fill="#655DFB" d="M63.779 29.5996C67.5118 29.5339 70.5376 32.6829 70.48 36.942C70.4225 41.2011 67.5118 44.3419 63.779 44.2926C60.079 44.3584 57.0451 41.2093 57.1026 36.942C57.1602 32.6747 60.079 29.5421 63.779 29.5996ZM63.9023 42.2699C66.295 42.2699 68.0627 40.2555 68.0627 36.942C68.0627 33.6285 66.295 31.6141 63.9023 31.6141H63.6556C61.2712 31.6141 59.5446 33.6285 59.5446 36.942C59.5446 40.2555 61.3123 42.2699 63.6556 42.2699H63.9023Z"/><path fill="#655DFB" d="M73.8348 30.6768C73.9732 29.5088 74.4154 28.3975 75.1174 27.4538C76.1096 26.1766 77.754 25.5407 80.0507 25.5462H83.1833C84.1618 25.5462 84.5071 25.2585 84.5071 24.5185V24.0498H86.7682V24.872C86.7682 26.8453 85.946 27.6347 83.5287 27.6347H79.9356C76.7865 27.6347 75.6519 29.2791 75.5203 33.0448C76.1006 32.2439 76.8599 31.5897 77.7379 31.1343C78.6158 30.6789 79.588 30.435 80.5769 30.422C84.0549 30.3808 86.8422 33.0859 86.8011 37.1312C86.76 41.1765 84.0631 44.4078 80.2234 44.342C75.8656 44.342 73.5306 41.1518 73.5306 35.8732C73.5089 34.1465 73.6161 32.4205 73.8512 30.7097L73.8348 30.6768ZM80.3467 42.3523C82.8133 42.4016 84.4578 40.0336 84.4084 37.1888C84.3591 34.3439 82.764 32.2966 80.3467 32.2966H80.174C77.8225 32.2966 76.0054 34.237 76.0054 36.9832C76.0054 40.1241 77.6498 42.3523 80.174 42.3523H80.3467Z"/><path fill="#655DFB" d="M112.059 42.0563V47.8118H109.79V44.0296H90.2708V29.8958H92.6798V42.0563H98.7478V29.8958H101.149V42.0563H107.241V29.8958H109.642V42.0563"/><path fill="#655DFB" d="M120.314 29.5995C123.85 29.5584 126.251 32.2388 126.21 35.8566V37.279H116.228C116.31 40.5679 118.366 42.3027 120.339 42.2698H120.545C121.282 42.3284 122.017 42.1174 122.611 41.6759C123.205 41.2344 123.619 40.5924 123.776 39.869H126.177C125.659 42.6727 123.291 44.2925 120.364 44.2925C116.795 44.2925 113.786 41.6778 113.827 36.8926C113.868 32.1073 116.943 29.4927 120.314 29.5749V29.5995ZM123.809 35.3304C123.718 32.8637 122.271 31.5975 120.421 31.5975H120.175C118.53 31.5975 116.795 32.6335 116.351 35.3304H123.809Z"/><path fill="#655DFB" d="M135.607 29.5996C138.773 29.5996 141.034 31.4743 141.305 34.5329H138.905C138.799 33.7386 138.425 33.0044 137.844 32.4527C137.564 32.1816 137.233 31.9692 136.87 31.828C136.508 31.6868 136.12 31.6196 135.731 31.6305H135.484C132.763 31.6305 131.299 34.0971 131.332 36.9584C131.365 39.8197 132.763 42.3275 135.484 42.2863H135.731C136.119 42.2975 136.505 42.2304 136.867 42.0892C137.228 41.9479 137.558 41.7353 137.836 41.4641C138.409 40.9024 138.784 40.1694 138.905 39.3757H141.305C140.952 42.385 138.781 44.309 135.607 44.309C131.439 44.3994 128.882 41.1106 128.923 36.9995C128.964 32.8885 131.439 29.5996 135.607 29.6572"/><path fill="#655DFB" d="M154.576 31.8691H149.881V44.0296H147.48V31.8691H142.785V29.8958H154.576"/><path fill="#655DFB" d="M157.158 29.8958H163.809C166.712 29.8958 168.315 31.4251 168.315 33.4806C168.347 34.2528 168.105 35.0115 167.633 35.6234C167.161 36.2354 166.488 36.6615 165.733 36.827C166.534 36.891 167.281 37.2538 167.826 37.8433C168.372 38.4328 168.675 39.2059 168.677 40.009C168.677 42.2618 166.695 44.0707 163.949 44.0296H157.158V29.8958ZM163.522 35.8815C163.826 35.9197 164.136 35.8914 164.429 35.7984C164.721 35.7053 164.99 35.5499 165.217 35.3427C165.444 35.1355 165.623 34.8815 165.742 34.5983C165.861 34.3152 165.917 34.0096 165.906 33.7026C165.906 32.4199 164.985 31.7293 163.316 31.7293H159.6V35.8403L163.522 35.8815ZM163.522 42.196C165.396 42.196 166.301 41.3738 166.301 39.8774C166.301 38.6441 165.38 37.8137 163.604 37.8137H159.641V42.196H163.522Z"/><path fill="#655DFB" d="M178.001 29.5996C181.734 29.5339 184.751 32.6829 184.702 36.942C184.653 41.2011 181.734 44.3419 178.001 44.2926C174.301 44.3584 171.267 41.2093 171.316 36.942C171.366 32.6747 174.301 29.5421 178.001 29.5996ZM178.132 42.2699C180.517 42.2699 182.243 40.2555 182.243 36.942C182.243 33.6285 180.476 31.6141 178.132 31.6141H177.878C175.493 31.6141 173.717 33.6285 173.717 36.942C173.717 40.2555 175.493 42.2699 177.878 42.2699H178.132Z"/><path fill="#655DFB" d="M71.6064 59.7174C72.3083 60.4978 72.6772 61.5217 72.6342 62.5704C72.6342 66.3033 69.6249 68.5397 65.0287 68.5397C59.9886 68.5397 57.1437 66.0731 56.8806 61.7565H60.6875C61.0328 64.0669 62.4552 65.1522 65.111 65.1522C67.5776 65.1522 68.8109 64.2478 68.8109 62.4882C68.8109 60.7287 67.6352 60.0216 65.4152 60.0216H62.7101V56.5847H65.1767C67.3309 56.5847 68.5231 55.6063 68.5231 53.929C68.5231 52.4572 67.2734 51.5281 65.0123 51.5281C63.9347 51.4556 62.8709 51.8033 62.0441 52.4983C61.3514 53.1733 60.9252 54.0753 60.8437 55.039H57.0451C57.0979 53.9365 57.3986 52.8601 57.9248 51.8899C58.5334 50.7892 59.432 49.8764 60.523 49.2506C61.8777 48.5042 63.4089 48.1378 64.9547 48.1899C69.7318 48.1899 72.3547 50.4921 72.3547 53.9454C72.3602 54.9469 72.0233 55.9202 71.3996 56.7039C70.776 57.4875 69.9032 58.0344 68.926 58.2538C69.9429 58.4674 70.8714 58.9833 71.59 59.7338"/><path fill="#655DFB" d="M75.8491 54.1262H79.5244V59.4706H84.9839V54.1262H88.6592V68.26H84.9839V62.4388H79.5244V68.26H75.8491"/><path fill="#655DFB" d="M91.652 61.1972C91.652 56.4448 94.5544 53.7973 97.7281 53.8466C98.5727 53.7898 99.4163 53.9708 100.163 54.369C100.91 54.7672 101.531 55.3667 101.954 56.0995V54.1262H105.638V68.2436H101.954V66.2703C101.517 66.9949 100.892 67.5872 100.145 67.984C99.3976 68.3808 98.5566 68.5671 97.7117 68.5231C94.801 68.5231 91.5697 65.9003 91.6355 61.1808L91.652 61.1972ZM98.7312 65.5549C100.515 65.5549 101.954 63.9105 101.954 61.1808C101.954 58.451 100.515 56.7984 98.7312 56.7984H98.5092C96.7908 56.7984 95.2779 58.7059 95.3108 61.1479C95.3437 63.5899 96.7908 65.5961 98.5092 65.5549H98.7312Z"/><path fill="#655DFB" d="M109.437 54.1262H113.104V59.4706H118.571V54.1262H122.247V68.26H118.571V62.4388H113.104V68.26H109.437"/><path fill="#655DFB" d="M139.776 54.1262V68.26H136.093V58.0728L130.929 68.26H126.029V54.1262H129.696V64.2148L134.851 54.1262"/><path fill="#655DFB" d="M142.769 61.1973C142.769 56.9712 145.359 53.7974 149.495 53.8468C153.63 53.8961 155.982 56.8972 155.941 61.0329C155.941 61.3042 155.941 61.7482 155.892 62.3567H146.354C146.39 63.1936 146.737 63.987 147.327 64.5817C147.917 65.1763 148.707 65.5293 149.544 65.5715H149.774C150.329 65.6067 150.878 65.4478 151.328 65.1223C151.778 64.7968 152.101 64.3248 152.241 63.7873H155.892C155.201 66.6075 152.964 68.5397 149.495 68.5397C146.025 68.5397 142.703 65.7113 142.769 61.1973ZM152.381 59.5529C152.371 59.1825 152.288 58.8178 152.136 58.4799C151.984 58.1421 151.766 57.838 151.495 57.5853C151.224 57.3327 150.905 57.1366 150.558 57.0086C150.21 56.8805 149.84 56.8231 149.47 56.8396H149.248C148.881 56.8253 148.515 56.8836 148.171 57.0111C147.827 57.1386 147.511 57.3329 147.242 57.5827C146.974 57.8325 146.757 58.133 146.604 58.4668C146.452 58.8007 146.367 59.1614 146.354 59.5282L152.381 59.5529Z"/></svg>